<svg id="Capa_1" data-name="Capa 1" xmlns="http://www.w3.org/2000/svg" xmlns:xlink="http://www.w3.org/1999/xlink" viewBox="0 0 737.68 781.57"><defs><style>.cls-1{fill:url(#Degradado_sin_nombre_12);}.cls-2{fill:url(#Degradado_sin_nombre_11);}.cls-3{fill:url(#Degradado_sin_nombre_11-2);}.cls-4{fill:url(#Degradado_sin_nombre_11-3);}.cls-5{fill:url(#Degradado_sin_nombre_11-4);}</style><linearGradient id="Degradado_sin_nombre_12" x1="657.92" y1="55.21" x2="143.39" y2="665.94" gradientUnits="userSpaceOnUse"><stop offset="0.24" stop-color="#d4145a"/><stop offset="0.39" stop-color="#e93589"/><stop offset="0.59" stop-color="#a925da"/><stop offset="0.65" stop-color="#a323d7"/><stop offset="0.73" stop-color="#931fce"/><stop offset="0.81" stop-color="#7817c0"/><stop offset="0.9" stop-color="#520dad"/><stop offset="1" stop-color="#230094"/></linearGradient><linearGradient id="Degradado_sin_nombre_11" x1="635.11" y1="34.67" x2="731.17" y2="-34.96" gradientUnits="userSpaceOnUse"><stop offset="0" stop-color="#d4145a"/><stop offset="0.23" stop-color="#e93589"/><stop offset="0.7" stop-color="#d325da"/><stop offset="1" stop-color="#1b1464"/></linearGradient><linearGradient id="Degradado_sin_nombre_11-2" x1="698.75" y1="378.25" x2="794.81" y2="308.62" xlink:href="#Degradado_sin_nombre_11"/><linearGradient id="Degradado_sin_nombre_11-3" x1="675.31" y1="199.73" x2="771.37" y2="130.1" xlink:href="#Degradado_sin_nombre_11"/><linearGradient id="Degradado_sin_nombre_11-4" x1="364.56" y1="103.56" x2="460.62" y2="33.93" xlink:href="#Degradado_sin_nombre_11"/></defs><path class="cls-1" d="M685.85,395.38a22.72,22.72,0,0,0-33.61-1.65l-25.81,25.82C604,442,566.17,432.8,555.67,402.8c-1-2.87-2-5.71-3.14-8.54a43.14,43.14,0,0,1,10.08-45.86l95.92-95.91c8.38-8.39,9.74-22,2.18-31.14a22.71,22.71,0,0,0-33.61-1.66L550,296.79a42.61,42.61,0,0,1-60.48-.12q-4.27-4.35-8.74-8.53a42.66,42.66,0,0,1-1-61.33L621,85.63c8.38-8.38,9.73-22,2.18-31.13a22.71,22.71,0,0,0-33.61-1.66L425.09,217.3a43.11,43.11,0,0,1-44.9,9.89q-5.2-1.83-10.51-3.46c-29.83-9.18-39.56-46.43-17.49-68.5h0c8.38-8.38,9.74-22,2.18-31.14a22.72,22.72,0,0,0-33.61-1.65l-62.94,62.95c-19,19-42.39,33-67.78,41.94A287.05,287.05,0,0,0,10.87,415.41a6.37,6.37,0,0,0,10.61,6.32L116.16,327a22.72,22.72,0,0,1,33.62,1.66c7.54,9.14,6.18,22.76-2.2,31.14L9.27,498.15a31.56,31.56,0,0,0-9.15,25,284.48,284.48,0,0,0,7.51,44.37c6,23.64,35.57,31.62,52.81,14.38L210.73,431.65a22.72,22.72,0,0,1,33.61,1.65c7.56,9.14,6.2,22.76-2.18,31.14L67.7,638.89a31.37,31.37,0,0,0-2.14,42.22A288.07,288.07,0,0,0,94.48,711c12.32,11,31.22,10.14,42.91-1.55l219.9-219.9a22.71,22.71,0,0,1,33.61,1.66c7.55,9.14,6.19,22.75-2.19,31.14L191.27,719.74c-16.89,16.89-9.61,45.8,13.31,52.52a284.91,284.91,0,0,0,42.85,9,31.38,31.38,0,0,0,26.25-9L392,654a22.7,22.7,0,0,1,33.61,1.65c7.55,9.14,6.2,22.75-2.18,31.14l-79,79a6.36,6.36,0,0,0,6,10.66,286.92,286.92,0,0,0,198.25-166.3c23-53.77,54.75-103.38,96.11-144.74l38.88-38.88C692.05,418.14,693.41,404.52,685.85,395.38Z"/><circle class="cls-2" cx="650.61" cy="23.44" r="23.44"/><circle class="cls-3" cx="714.25" cy="367.02" r="23.44"/><circle class="cls-4" cx="690.81" cy="188.5" r="23.44"/><circle class="cls-5" cx="380.06" cy="92.32" r="23.44"/></svg>